<svg aria-hidden="true" style="position: absolute; width: 0; height: 0; overflow: hidden;" version="1.1" xmlns="http://www.w3.org/2000/svg" xmlns:xlink="http://www.w3.org/1999/xlink">
<defs>
<symbol id="icon-big-instagram" viewBox="0 0 32 32">
<path fill="#fff" style="fill: var(--color1, #fff)" d="M16 0c-4.347 0-4.889 0.020-6.596 0.096-1.704 0.080-2.864 0.348-3.884 0.744-1.052 0.408-1.945 0.956-2.835 1.845s-1.439 1.781-1.845 2.835c-0.396 1.020-0.665 2.18-0.744 3.884-0.080 1.707-0.096 2.249-0.096 6.596s0.020 4.889 0.096 6.596c0.080 1.703 0.348 2.864 0.744 3.884 0.408 1.051 0.956 1.945 1.845 2.835 0.889 0.888 1.781 1.439 2.835 1.845 1.021 0.395 2.181 0.665 3.884 0.744 1.707 0.080 2.249 0.096 6.596 0.096s4.889-0.020 6.596-0.096c1.703-0.080 2.864-0.349 3.884-0.744 1.051-0.408 1.945-0.957 2.835-1.845 0.888-0.889 1.439-1.78 1.845-2.835 0.395-1.020 0.665-2.181 0.744-3.884 0.080-1.707 0.096-2.249 0.096-6.596s-0.020-4.889-0.096-6.596c-0.080-1.703-0.349-2.865-0.744-3.884-0.408-1.052-0.957-1.945-1.845-2.835-0.889-0.889-1.78-1.439-2.835-1.845-1.020-0.396-2.181-0.665-3.884-0.744-1.707-0.080-2.249-0.096-6.596-0.096zM16 2.88c4.271 0 4.78 0.021 6.467 0.095 1.56 0.073 2.407 0.332 2.969 0.553 0.749 0.289 1.28 0.636 1.843 1.195 0.559 0.56 0.905 1.092 1.195 1.841 0.219 0.563 0.48 1.409 0.551 2.969 0.076 1.688 0.093 2.195 0.093 6.467s-0.020 4.78-0.099 6.467c-0.081 1.56-0.341 2.407-0.561 2.969-0.299 0.749-0.639 1.28-1.199 1.843-0.559 0.559-1.099 0.905-1.84 1.195-0.56 0.219-1.42 0.48-2.98 0.551-1.699 0.076-2.199 0.093-6.479 0.093-4.281 0-4.781-0.020-6.479-0.099-1.561-0.081-2.421-0.341-2.981-0.561-0.759-0.299-1.28-0.639-1.839-1.199-0.561-0.559-0.92-1.099-1.2-1.84-0.22-0.56-0.479-1.42-0.56-2.98-0.060-1.68-0.081-2.199-0.081-6.459 0-4.261 0.021-4.781 0.081-6.481 0.081-1.56 0.34-2.419 0.56-2.979 0.28-0.76 0.639-1.28 1.2-1.841 0.559-0.559 1.080-0.919 1.839-1.197 0.56-0.221 1.401-0.481 2.961-0.561 1.7-0.060 2.2-0.080 6.479-0.080l0.060 0.040zM16 7.784c-4.54 0-8.216 3.68-8.216 8.216 0 4.54 3.68 8.216 8.216 8.216 4.54 0 8.216-3.68 8.216-8.216 0-4.54-3.68-8.216-8.216-8.216zM16 21.333c-2.947 0-5.333-2.387-5.333-5.333s2.387-5.333 5.333-5.333c2.947 0 5.333 2.387 5.333 5.333s-2.387 5.333-5.333 5.333zM26.461 7.46c0 1.060-0.861 1.92-1.92 1.92-1.060 0-1.92-0.861-1.92-1.92s0.861-1.919 1.92-1.919c1.057-0.001 1.92 0.86 1.92 1.919z"></path>
</symbol>
<symbol id="icon-instagram" viewBox="0 0 32 32">
<path fill="#fff" style="fill: var(--color1, #fff)" d="M16 0c-4.347 0-4.89 0.020-6.596 0.096-1.704 0.080-2.864 0.348-3.884 0.744-1.052 0.408-1.946 0.956-2.835 1.845s-1.438 1.781-1.845 2.835c-0.395 1.020-0.666 2.18-0.744 3.884-0.080 1.706-0.096 2.249-0.096 6.596s0.020 4.89 0.096 6.596c0.080 1.702 0.348 2.864 0.744 3.884 0.408 1.051 0.956 1.946 1.845 2.835 0.89 0.888 1.781 1.438 2.835 1.845 1.021 0.394 2.181 0.666 3.884 0.744 1.706 0.080 2.249 0.096 6.596 0.096s4.89-0.020 6.596-0.096c1.702-0.080 2.864-0.349 3.884-0.744 1.051-0.408 1.946-0.957 2.835-1.845 0.888-0.89 1.438-1.78 1.845-2.835 0.394-1.020 0.666-2.181 0.744-3.884 0.080-1.706 0.096-2.249 0.096-6.596s-0.020-4.89-0.096-6.596c-0.080-1.702-0.349-2.865-0.744-3.884-0.408-1.052-0.957-1.946-1.845-2.835-0.89-0.889-1.78-1.438-2.835-1.845-1.020-0.395-2.181-0.666-3.884-0.744-1.706-0.080-2.249-0.096-6.596-0.096zM16 2.88c4.271 0 4.78 0.021 6.467 0.095 1.56 0.074 2.406 0.332 2.97 0.554 0.749 0.289 1.28 0.636 1.843 1.194 0.559 0.56 0.906 1.092 1.195 1.841 0.218 0.563 0.48 1.409 0.55 2.97 0.076 1.688 0.093 2.195 0.093 6.467s-0.020 4.78-0.099 6.467c-0.081 1.56-0.342 2.406-0.561 2.97-0.299 0.749-0.639 1.28-1.199 1.843-0.559 0.559-1.099 0.906-1.84 1.195-0.56 0.218-1.421 0.48-2.98 0.55-1.699 0.076-2.198 0.093-6.479 0.093-4.282 0-4.781-0.020-6.478-0.099-1.562-0.081-2.422-0.342-2.982-0.561-0.758-0.299-1.28-0.639-1.839-1.199-0.561-0.559-0.92-1.099-1.2-1.84-0.22-0.56-0.479-1.421-0.56-2.98-0.060-1.68-0.081-2.198-0.081-6.458 0-4.262 0.022-4.781 0.081-6.481 0.081-1.56 0.34-2.419 0.56-2.979 0.28-0.76 0.639-1.28 1.2-1.841 0.559-0.558 1.080-0.918 1.839-1.197 0.56-0.221 1.402-0.482 2.961-0.562 1.7-0.060 2.2-0.080 6.479-0.080l0.060 0.040zM16 7.784c-4.54 0-8.216 3.68-8.216 8.216 0 4.54 3.68 8.216 8.216 8.216 4.54 0 8.216-3.68 8.216-8.216 0-4.54-3.68-8.216-8.216-8.216zM16 21.333c-0.001 0-0.001 0-0.002 0-2.944 0-5.331-2.387-5.331-5.331 0-0.001 0-0.001 0-0.002v0c0-0.001 0-0.001 0-0.002 0-2.944 2.387-5.331 5.331-5.331 0.001 0 0.001 0 0.002 0h-0c0.001 0 0.001 0 0.002 0 2.944 0 5.331 2.387 5.331 5.331 0 0.001 0 0.001 0 0.002v-0c0 0.001 0 0.001 0 0.002 0 2.944-2.387 5.331-5.331 5.331-0.001 0-0.001 0-0.002 0h0zM26.461 7.46c0 1.060-0.861 1.92-1.92 1.92-1.060 0-1.92-0.861-1.92-1.92 0.001-1.060 0.86-1.918 1.92-1.919h0c1.060 0.001 1.919 0.859 1.92 1.919v0z"></path>
</symbol>
</defs>
</svg>
