<svg aria-hidden="true" style="position: absolute; width: 0; height: 0; overflow: hidden;" version="1.1" xmlns="http://www.w3.org/2000/svg" xmlns:xlink="http://www.w3.org/1999/xlink">
<defs>
<symbol id="icon-big-instagram" viewBox="0 0 32 32">
<path fill="#fff" style="fill: var(--color1, #fff)" d="M16 0c-4.347 0-4.889 0.020-6.596 0.096-1.704 0.080-2.864 0.348-3.884 0.744-1.052 0.408-1.945 0.956-2.835 1.845s-1.439 1.781-1.845 2.835c-0.396 1.020-0.665 2.18-0.744 3.884-0.080 1.707-0.096 2.249-0.096 6.596s0.020 4.889 0.096 6.596c0.080 1.703 0.348 2.864 0.744 3.884 0.408 1.051 0.956 1.945 1.845 2.835 0.889 0.888 1.781 1.439 2.835 1.845 1.021 0.395 2.181 0.665 3.884 0.744 1.707 0.080 2.249 0.096 6.596 0.096s4.889-0.020 6.596-0.096c1.703-0.080 2.864-0.349 3.884-0.744 1.051-0.408 1.945-0.957 2.835-1.845 0.888-0.889 1.439-1.78 1.845-2.835 0.395-1.020 0.665-2.181 0.744-3.884 0.080-1.707 0.096-2.249 0.096-6.596s-0.020-4.889-0.096-6.596c-0.080-1.703-0.349-2.865-0.744-3.884-0.408-1.052-0.957-1.945-1.845-2.835-0.889-0.889-1.78-1.439-2.835-1.845-1.020-0.396-2.181-0.665-3.884-0.744-1.707-0.080-2.249-0.096-6.596-0.096zM16 2.88c4.271 0 4.78 0.021 6.467 0.095 1.56 0.073 2.407 0.332 2.969 0.553 0.749 0.289 1.28 0.636 1.843 1.195 0.559 0.56 0.905 1.092 1.195 1.841 0.219 0.563 0.48 1.409 0.551 2.969 0.076 1.688 0.093 2.195 0.093 6.467s-0.020 4.78-0.099 6.467c-0.081 1.56-0.341 2.407-0.561 2.969-0.299 0.749-0.639 1.28-1.199 1.843-0.559 0.559-1.099 0.905-1.84 1.195-0.56 0.219-1.42 0.48-2.98 0.551-1.699 0.076-2.199 0.093-6.479 0.093-4.281 0-4.781-0.020-6.479-0.099-1.561-0.081-2.421-0.341-2.981-0.561-0.759-0.299-1.28-0.639-1.839-1.199-0.561-0.559-0.92-1.099-1.2-1.84-0.22-0.56-0.479-1.42-0.56-2.98-0.060-1.68-0.081-2.199-0.081-6.459 0-4.261 0.021-4.781 0.081-6.481 0.081-1.56 0.34-2.419 0.56-2.979 0.28-0.76 0.639-1.28 1.2-1.841 0.559-0.559 1.080-0.919 1.839-1.197 0.56-0.221 1.401-0.481 2.961-0.561 1.7-0.060 2.2-0.080 6.479-0.080l0.060 0.040zM16 7.784c-4.54 0-8.216 3.68-8.216 8.216 0 4.54 3.68 8.216 8.216 8.216 4.54 0 8.216-3.68 8.216-8.216 0-4.54-3.68-8.216-8.216-8.216zM16 21.333c-2.947 0-5.333-2.387-5.333-5.333s2.387-5.333 5.333-5.333c2.947 0 5.333 2.387 5.333 5.333s-2.387 5.333-5.333 5.333zM26.461 7.46c0 1.060-0.861 1.92-1.92 1.92-1.060 0-1.92-0.861-1.92-1.92s0.861-1.919 1.92-1.919c1.057-0.001 1.92 0.86 1.92 1.919z"></path>
</symbol>
<symbol id="icon-instagram" viewBox="0 0 32 32">
<path fill="#fff" style="fill: var(--color1, #fff)" d="M16 0c-4.347 0-4.89 0.020-6.596 0.096-1.704 0.080-2.864 0.348-3.884 0.744-1.052 0.408-1.946 0.956-2.835 1.845s-1.438 1.781-1.845 2.835c-0.395 1.020-0.666 2.18-0.744 3.884-0.080 1.706-0.096 2.249-0.096 6.596s0.020 4.89 0.096 6.596c0.080 1.702 0.348 2.864 0.744 3.884 0.408 1.051 0.956 1.946 1.845 2.835 0.89 0.888 1.781 1.438 2.835 1.845 1.021 0.394 2.181 0.666 3.884 0.744 1.706 0.080 2.249 0.096 6.596 0.096s4.89-0.020 6.596-0.096c1.702-0.080 2.864-0.349 3.884-0.744 1.051-0.408 1.946-0.957 2.835-1.845 0.888-0.89 1.438-1.78 1.845-2.835 0.394-1.020 0.666-2.181 0.744-3.884 0.080-1.706 0.096-2.249 0.096-6.596s-0.020-4.89-0.096-6.596c-0.080-1.702-0.349-2.865-0.744-3.884-0.408-1.052-0.957-1.946-1.845-2.835-0.89-0.889-1.78-1.438-2.835-1.845-1.020-0.395-2.181-0.666-3.884-0.744-1.706-0.080-2.249-0.096-6.596-0.096zM16 2.88c4.271 0 4.78 0.021 6.467 0.095 1.56 0.074 2.406 0.332 2.97 0.554 0.749 0.289 1.28 0.636 1.843 1.194 0.559 0.56 0.906 1.092 1.195 1.841 0.218 0.563 0.48 1.409 0.55 2.97 0.076 1.688 0.093 2.195 0.093 6.467s-0.020 4.78-0.099 6.467c-0.081 1.56-0.342 2.406-0.561 2.97-0.299 0.749-0.639 1.28-1.199 1.843-0.559 0.559-1.099 0.906-1.84 1.195-0.56 0.218-1.421 0.48-2.98 0.55-1.699 0.076-2.198 0.093-6.479 0.093-4.282 0-4.781-0.020-6.478-0.099-1.562-0.081-2.422-0.342-2.982-0.561-0.758-0.299-1.28-0.639-1.839-1.199-0.561-0.559-0.92-1.099-1.2-1.84-0.22-0.56-0.479-1.421-0.56-2.98-0.060-1.68-0.081-2.198-0.081-6.458 0-4.262 0.022-4.781 0.081-6.481 0.081-1.56 0.34-2.419 0.56-2.979 0.28-0.76 0.639-1.28 1.2-1.841 0.559-0.558 1.080-0.918 1.839-1.197 0.56-0.221 1.402-0.482 2.961-0.562 1.7-0.060 2.2-0.080 6.479-0.080l0.060 0.040zM16 7.784c-4.54 0-8.216 3.68-8.216 8.216 0 4.54 3.68 8.216 8.216 8.216 4.54 0 8.216-3.68 8.216-8.216 0-4.54-3.68-8.216-8.216-8.216zM16 21.333c-0.001 0-0.001 0-0.002 0-2.944 0-5.331-2.387-5.331-5.331 0-0.001 0-0.001 0-0.002v0c0-0.001 0-0.001 0-0.002 0-2.944 2.387-5.331 5.331-5.331 0.001 0 0.001 0 0.002 0h-0c0.001 0 0.001 0 0.002 0 2.944 0 5.331 2.387 5.331 5.331 0 0.001 0 0.001 0 0.002v-0c0 0.001 0 0.001 0 0.002 0 2.944-2.387 5.331-5.331 5.331-0.001 0-0.001 0-0.002 0h0zM26.461 7.46c0 1.060-0.861 1.92-1.92 1.92-1.060 0-1.92-0.861-1.92-1.92 0.001-1.060 0.86-1.918 1.92-1.919h0c1.060 0.001 1.919 0.859 1.92 1.919v0z"></path>
</symbol>
<svg aria-hidden="true" style="position: absolute; width: 0; height: 0; overflow: hidden;" version="1.1" xmlns="http://www.w3.org/2000/svg" xmlns:xlink="http://www.w3.org/1999/xlink">
<defs>
<symbol id="icon-facebook" viewBox="0 0 32 32">
<path fill="#fff" style="fill: var(--color1, #fff)" d="M18.384 31.992v-14.592h4.72l0.704-5.688h-5.424v-3.632c0-1.646 0.442-2.768 2.715-2.768l2.901-0.002v-5.088c-0.502-0.066-2.224-0.222-4.226-0.222-4.182 0-7.045 2.65-7.045 7.518v4.194h-4.73v5.686h4.73v14.594h5.656z"></path>
</symbol>
<symbol id="icon-instagram" viewBox="0 0 32 32">
<path fill="#fff" style="fill: var(--color1, #fff)" d="M16 0c-4.347 0-4.89 0.021-6.595 0.096-1.706 0.080-2.864 0.349-3.885 0.744-1.11 0.424-2.055 1.051-2.834 1.844l-0.001 0.001c-0.794 0.779-1.422 1.725-1.827 2.782l-0.018 0.053c-0.395 1.021-0.666 2.179-0.744 3.885-0.080 1.706-0.096 2.248-0.096 6.595s0.021 4.89 0.096 6.597c0.080 1.702 0.349 2.864 0.744 3.883 0.424 1.109 1.052 2.055 1.844 2.834l0.001 0.001c0.78 0.794 1.726 1.421 2.782 1.827l0.054 0.018c1.021 0.395 2.181 0.666 3.885 0.744 1.706 0.080 2.248 0.096 6.595 0.096s4.89-0.019 6.597-0.096c1.702-0.080 2.864-0.349 3.883-0.744 1.109-0.425 2.055-1.052 2.834-1.844l0.001-0.001c0.888-0.89 1.438-1.781 1.845-2.835 0.395-1.021 0.666-2.181 0.744-3.885 0.080-1.706 0.096-2.248 0.096-6.595s-0.019-4.89-0.096-6.595c-0.080-1.704-0.349-2.866-0.744-3.885-0.424-1.109-1.052-2.055-1.844-2.834l-0.001-0.001c-0.779-0.795-1.725-1.422-2.782-1.827l-0.053-0.018c-1.021-0.395-2.181-0.666-3.885-0.744-1.706-0.080-2.246-0.096-6.595-0.096zM16 2.88c4.272 0 4.781 0.021 6.467 0.096 1.56 0.072 2.406 0.331 2.97 0.552 0.749 0.288 1.28 0.635 1.842 1.195 0.56 0.56 0.906 1.091 1.195 1.84 0.219 0.563 0.48 1.41 0.55 2.97 0.075 1.688 0.093 2.195 0.093 6.467s-0.019 4.781-0.098 6.467c-0.082 1.56-0.342 2.406-0.562 2.97-0.299 0.749-0.64 1.28-1.2 1.842-0.505 0.517-1.119 0.924-1.806 1.184l-0.034 0.011c-0.56 0.219-1.419 0.48-2.979 0.55-1.698 0.075-2.198 0.093-6.478 0.093-4.282 0-4.781-0.019-6.48-0.098-1.56-0.082-2.421-0.342-2.979-0.562-0.76-0.299-1.28-0.64-1.84-1.2-0.522-0.502-0.932-1.117-1.189-1.806l-0.011-0.034c-0.219-0.56-0.478-1.419-0.56-2.979-0.059-1.68-0.080-2.198-0.080-6.458 0-4.262 0.021-4.782 0.080-6.482 0.082-1.56 0.341-2.419 0.56-2.979 0.28-0.76 0.64-1.28 1.2-1.84s1.080-0.92 1.84-1.2c0.56-0.219 1.4-0.48 2.96-0.56 1.701-0.059 2.2-0.080 6.48-0.080l0.059 0.040zM16 7.784c-4.538 0-8.216 3.678-8.216 8.216s3.678 8.216 8.216 8.216v0c4.538 0 8.216-3.678 8.216-8.216s-3.678-8.216-8.216-8.216v0zM16 21.333c-2.944-0.001-5.33-2.387-5.33-5.331s2.387-5.331 5.331-5.331c2.944 0 5.33 2.386 5.331 5.33v0c0 0 0 0.001 0 0.002 0 2.944-2.387 5.331-5.331 5.331-0.001 0-0.001 0-0.002 0h0zM26.461 7.461c0 1.060-0.86 1.92-1.92 1.92s-1.92-0.86-1.92-1.92v0c0-1.060 0.86-1.92 1.92-1.92s1.92 0.86 1.92 1.92v0z"></path>
</symbol>
<symbol id="icon-linkedin" viewBox="0 0 32 32">
<path fill="#fff" style="fill: var(--color1, #fff)" d="M27.264 27.269h-4.739v-7.424c0-1.771-0.037-4.050-2.47-4.050-2.47 0-2.848 1.926-2.848 3.918v7.555h-4.738v-15.269h4.55v2.080h0.062c0.635-1.2 2.182-2.464 4.493-2.464 4.802 0 5.69 3.158 5.69 7.272v8.381zM7.115 9.91c-1.526 0-2.752-1.234-2.752-2.752s1.227-2.752 2.752-2.752c1.52 0 2.752 1.232 2.752 2.752s-1.232 2.752-2.752 2.752v0zM9.49 27.27h-4.752v-15.27h4.752v15.269zM29.634 0h-27.272c-1.306 0-2.362 1.032-2.362 2.304v27.392c0 1.272 1.056 2.304 2.362 2.304h27.267c1.304 0 2.371-1.030 2.371-2.304v-27.392c0-1.27-1.067-2.304-2.371-2.304h0.005z"></path>
</symbol>
<symbol id="icon-twitter" viewBox="0 0 32 32">
<path fill="#fff" style="fill: var(--color1, #fff)" d="M31.939 6.091c-1.096 0.497-2.368 0.86-3.701 1.027l-0.065 0.007c1.354-0.824 2.373-2.085 2.87-3.584l0.013-0.047c-1.269 0.741-2.672 1.28-4.17 1.579-1.2-1.282-2.903-2.080-4.792-2.080-3.623 0-6.56 2.937-6.56 6.56 0 0.531 0.063 1.047 0.182 1.541l-0.009-0.045c-5.463-0.271-10.271-2.863-13.494-6.802l-0.026-0.033c-0.558 0.933-0.888 2.058-0.888 3.26 0 0.014 0 0.028 0 0.043v-0.002c0 0.002 0 0.004 0 0.005 0 2.265 1.148 4.262 2.894 5.441l0.023 0.015c-1.096-0.036-2.115-0.336-3.004-0.838l0.033 0.017v0.080c0 0.001 0 0.002 0 0.004 0 3.164 2.239 5.806 5.22 6.426l0.043 0.007c-0.516 0.144-1.109 0.226-1.722 0.226-0.435 0-0.859-0.042-1.271-0.121l0.042 0.007c0.868 2.628 3.278 4.501 6.133 4.557l0.007 0c-2.214 1.75-5.045 2.806-8.123 2.806-0.005 0-0.009 0-0.014 0h0.001c-0.52 0-1.040-0.030-1.56-0.088 2.845 1.846 6.324 2.944 10.060 2.944 0.006 0 0.012 0 0.018 0h-0.001c12.070 0 18.664-9.994 18.664-18.648 0-0.278 0-0.56-0.019-0.84 1.28-0.918 2.4-2.080 3.28-3.397l-0.064-0.027z"></path>
</symbol>
</defs>
</svg>
